<?xml version="1.0" encoding="utf-8"?>
<!-- Generator: Adobe Illustrator 27.2.0, SVG Export Plug-In . SVG Version: 6.00 Build 0)  -->
<svg version="1.1" id="Layer_1" xmlns="http://www.w3.org/2000/svg" xmlns:xlink="http://www.w3.org/1999/xlink" x="0px" y="0px"
	 viewBox="0 0 141 51" style="enable-background:new 0 0 141 51;" xml:space="preserve">
<style type="text/css">
	.st0{fill:#292929;}
</style>
<g>
	<path class="st0" d="M120.1,14.9l-8,30.4v0.1h6.2l8-30.4L120.1,14.9L120.1,14.9z M21.7,32.1c-0.9,0.5-2,0.7-3,0.7
		c-2.2,0-3.5-0.4-3.6-2.2v-0.1c0-0.1,0-0.1,0-0.2v-5.2v-0.6v-3.7l0,0v-1.6v-0.6V15l-5.5,0.7c3.7-0.7,5.9-3.7,5.9-6.6V7.3H9.3v8.5
		l-0.4,0.1v15.7c0.2,4.4,3.1,7,7.9,7c1.7,0,3.6-0.4,5-1l0,0L21.7,32.1L21.7,32.1L21.7,32.1z"/>
	<path class="st0" d="M22.7,13.7L5.3,16.4v4.4l17.4-2.7C22.7,18.1,22.7,13.7,22.7,13.7z M22.7,20.2L5.3,22.9v4.2l17.4-2.7V20.2z
		 M42.3,22.2C42,17.3,39,14.4,34,14.4c-2.9,0-5.2,1.1-6.9,3.2c-1.6,2.1-2.5,5.2-2.5,8.9s0.8,6.8,2.5,8.9c1.6,2.1,4,3.2,6.9,3.2
		c5,0,8.1-2.9,8.3-7.9v7.4h6.2V14.9l-6.2,1V22.2L42.3,22.2z M42.6,26.5c0,4.4-2.3,7.2-5.8,7.2c-3.6,0-5.8-2.7-5.8-7.2
		s2.2-7.2,5.8-7.2c1.8,0,3.3,0.7,4.3,2C42.1,22.6,42.6,24.4,42.6,26.5L42.6,26.5z M66.6,14.4c-5,0-8.1,2.9-8.3,7.8V8.1l-6.2,1v29.1
		h6.2v-7.4c0.2,4.9,3.3,7.9,8.3,7.9c5.9,0,9.4-4.5,9.4-12.1S72.5,14.4,66.6,14.4z M63.8,33.7c-3.5,0-5.8-2.8-5.8-7.2
		c0-2.1,0.5-3.9,1.5-5.2c1-1.3,2.5-2,4.3-2c3.6,0,5.8,2.7,5.8,7.2S67.4,33.7,63.8,33.7L63.8,33.7z M92.9,14.4c-5,0-8.1,2.9-8.3,7.8
		V8.1l-6.2,1v29.1h6.2v-7.4c0.2,4.9,3.3,7.9,8.3,7.9c5.9,0,9.4-4.5,9.4-12.1S98.7,14.4,92.9,14.4L92.9,14.4z M90.1,33.7
		c-3.5,0-5.8-2.8-5.8-7.2c0-2.1,0.5-3.9,1.5-5.2c1-1.3,2.5-2,4.3-2c3.6,0,5.8,2.7,5.8,7.2S93.7,33.7,90.1,33.7L90.1,33.7z
		 M102.3,14.9h6.6l5.4,23.3h-5.9C108.3,38.1,102.3,14.9,102.3,14.9z M131.4,17.3v-1.9h-0.8V15h2v0.4h-0.8v1.9
		C131.8,17.3,131.4,17.3,131.4,17.3z M132.8,17.3V15h0.8l0.4,1.1c0.1,0.3,0.1,0.4,0.2,0.5c0-0.1,0.1-0.2,0.2-0.5l0.4-1.1h0.8v2.3
		H135v-1.8l-0.6,1.8H134l-0.6-1.8v1.8H132.8L132.8,17.3z"/>
</g>
</svg>
