<?xml version="1.0" encoding="utf-8"?>
<!-- Generator: Adobe Illustrator 27.2.0, SVG Export Plug-In . SVG Version: 6.00 Build 0)  -->
<svg version="1.1" id="Layer_1" xmlns="http://www.w3.org/2000/svg" xmlns:xlink="http://www.w3.org/1999/xlink" x="0px" y="0px"
	 viewBox="0 0 254.9 106.6" style="enable-background:new 0 0 254.9 106.6;" xml:space="preserve">
<g>
	<path d="M58.8,41.7c-0.8,0.1-1.5,0.6-1.9,1.2c-1,1.9-1.8,4-2.8,6c-0.5,0.8-0.3,1.9,0.5,2.5c2.1,2.2,4,4.5,5.8,7
		c2,2.7,1.7,6.5-0.8,8.7c-1.9,2-4.2,3.6-6.6,4.8c-3.5,1.7-7.3,2.8-11,4.2c-0.5,0.2-1.3,0.8-1.4,1.3c-0.3,0.8,0.2,1.7,1,2
		c0,0,0,0,0,0c4.2,1.8,8.5,3.5,12.9,5.3c1.4-2.2,2.9-4.2,4.1-6.3c6.8-11.4,8.3-23.2,2-35.3C60.3,42.3,59.6,41.8,58.8,41.7z"/>
	<path d="M209.5,26.7l-0.1-0.1c-2-2-5.3-2-7.3,0c0,0,0,0,0,0l0,0c-2,2-2,5.3,0,7.3c0,0,0,0,0,0l0.1,0.2c1.9,2,5.2,2.1,7.2,0.1
		c0,0,0.1-0.1,0.1-0.1l0,0C211.5,32,211.5,28.8,209.5,26.7z"/>
	<path d="M187.9,27c-0.5,0.5-0.9,1.1-1.2,1.8l7.9,6.8c0.4-0.2,0.8-0.5,1.1-0.8l0.2-0.2c2.1-2.1,2.2-5.5,0.2-7.6
		c-0.1-0.1-0.1-0.1-0.2-0.2l0,0c-2.1-2.1-5.6-2.1-7.8,0L187.9,27z"/>
	<path d="M71.1,23.6c0,0-1.9,4-2.8,6.1c-0.4,0.9-0.6,1.8-0.5,2.7c0.3,7.2,0.6,14.4,1.2,21.5S73,66.5,79.7,69.6
		c4.7,2,9.7,3.2,14.8,3.4c6.5,0.4,12.9,0.6,19.4,0.6c10.7,0.2,21.5-0.8,32-2.8c3.2-0.4,13.4-3.1,15.1-4c2-1.1,1.8-0.8,3.8-0.3
		c4.9,1.2,17.6,0.9,21.3-0.2c2.5-0.7,4.7-1.3,5.3-3c2.3,3.6,3.5,5.4,7.4,5c2.7-0.2,5.4-0.7,8-1.4c3.1-0.6,5.6-2.9,6.5-5.9
		c0.4-1.4,0.6-2.8,0.7-4.3c0.8-5-0.4-10-3.1-14.2c-0.4-0.9-1.4-1.5-2.4-1.3c-0.5,0-1.3,0.8-1.6,1.4c-1,1.9-1.7,3.9-2.6,5.8
		c-0.5,0.9-0.3,2,0.6,2.6c1.8,1.6,3.4,3.3,5.7,5.5c-4.3,0.5-5.7,0.9-9.4,1.2s-10.4,0.2-12.3-3.1c-1.4-2.4-2.3-4.1-4.5-5.8
		c-3.8-2.8-9.8-2.7-14.9-0.1c-2.3,1.2-4.7,3.5-5.1,6.2c0,1.2-0.8,2.3-2,2.6c-21,5.4-45.6,8-66.2,5.7c-5.3-0.4-10.5-1.6-15.4-3.4
		c-4.4-1.7-6.4-4.8-6.4-9.6c0.1-8.8,0-17.7,0-26.5c0.1-0.9-0.6-1.8-1.6-1.9c0,0-0.1,0-0.1,0C72,21.9,71.1,23.6,71.1,23.6z
		 M184.5,60.2L167.4,60c0,0,1.3-6.8,8.2-7C185.7,52.5,184.5,60.2,184.5,60.2z"/>
	<path d="M47.6,24.4c0.1-0.9-0.6-1.8-1.5-1.9c0,0-0.1,0-0.1,0c-0.7-0.1-1.6,1.6-1.6,1.6s-1.9,4-2.8,6.1C41.2,31.1,41,32,41,32.9
		c0.2,3.5,0.3,7,0.5,10.6l0,0c0.2,5,0.5,10,0.7,15c0.2,3.1,0.3,6.2,0.5,9.3h2.8c0.7-3.5,1.9-7,2-10.4C47.6,52.7,47.6,30.7,47.6,24.4
		z"/>
</g>
</svg>
